<?xml version="1.0" encoding="UTF-8" standalone="no"?>
<!-- Created with Inkscape (http://www.inkscape.org/) -->

<svg
   width="450.50949mm"
   height="450.50949mm"
   viewBox="0 0 450.50949 450.50949"
   version="1.1"
   id="svg1"
   xml:space="preserve"
   inkscape:version="1.2.2 (b0a84865, 2022-12-01)"
   sodipodi:docname="drawing.svg"
   inkscape:export-filename="../../../../../../Desktop/tire_s.png"
   inkscape:export-xdpi="22.549999"
   inkscape:export-ydpi="22.549999"
   xmlns:inkscape="http://www.inkscape.org/namespaces/inkscape"
   xmlns:sodipodi="http://sodipodi.sourceforge.net/DTD/sodipodi-0.dtd"
   xmlns:xlink="http://www.w3.org/1999/xlink"
   xmlns="http://www.w3.org/2000/svg"
   xmlns:svg="http://www.w3.org/2000/svg"><sodipodi:namedview
     id="namedview1"
     pagecolor="#505050"
     bordercolor="#eeeeee"
     borderopacity="1"
     inkscape:showpageshadow="0"
     inkscape:pageopacity="0"
     inkscape:pagecheckerboard="0"
     inkscape:deskcolor="#505050"
     inkscape:document-units="mm"
     showgrid="true"
     inkscape:zoom="0.25"
     inkscape:cx="654"
     inkscape:cy="534"
     inkscape:window-width="1440"
     inkscape:window-height="785"
     inkscape:window-x="0"
     inkscape:window-y="25"
     inkscape:window-maximized="1"
     inkscape:current-layer="layer1"><inkscape:grid
       id="grid9"
       units="mm"
       originx="105.25476"
       originy="105.25477"
       spacingx="2.0000001"
       spacingy="1.9999996"
       empcolor="#0099e5"
       empopacity="0.30196078"
       color="#0099e5"
       opacity="0.14901961"
       empspacing="10"
       enabled="true"
       visible="true" /></sodipodi:namedview><defs
     id="defs1"><linearGradient
       id="linearGradient41"
       inkscape:collect="always"><stop
         style="stop-color:#6f6f6f;stop-opacity:0;"
         offset="0"
         id="stop41" /><stop
         style="stop-color:#0e0e0e;stop-opacity:1;"
         offset="1"
         id="stop42" /></linearGradient><inkscape:path-effect
       effect="bend_path"
       id="path-effect39"
       is_visible="true"
       lpeversion="1"
       bendpath="m -55.752175,279.99994 c 57.8164953,38.86979 128.660865,41.27924 192.050145,0"
       prop_scale="1"
       scale_y_rel="false"
       vertical="false"
       hide_knot="false"
       bendpath-nodetypes="cc" /><inkscape:path-effect
       effect="bend_path"
       id="path-effect38"
       is_visible="true"
       lpeversion="1"
       bendpath="m 152.02844,284.38209 c 39.95094,12.08476 82.3547,8.33779 114.02371,-4.39296"
       prop_scale="1"
       scale_y_rel="false"
       vertical="false"
       hide_knot="false"
       bendpath-nodetypes="cc" /><inkscape:path-effect
       effect="bend_path"
       id="path-effect37"
       is_visible="true"
       lpeversion="1"
       bendpath="m 48.831067,-49.069062 c 47.288182,-21.279591 95.338593,-19.188845 141.215323,-1.49671"
       prop_scale="1"
       scale_y_rel="false"
       vertical="false"
       hide_knot="false"
       bendpath-nodetypes="cc" /><linearGradient
       id="linearGradient36"
       inkscape:collect="always"><stop
         style="stop-color:#6c6c6c;stop-opacity:1;"
         offset="0"
         id="stop36" /><stop
         style="stop-color:#6c6c6c;stop-opacity:0;"
         offset="1"
         id="stop37" /></linearGradient><linearGradient
       id="linearGradient35"
       inkscape:collect="always"><stop
         style="stop-color:#0e0e0e;stop-opacity:1;"
         offset="0.82881355"
         id="stop33" /><stop
         style="stop-color:#000000;stop-opacity:0;"
         offset="0.93559325"
         id="stop34" /></linearGradient><linearGradient
       id="linearGradient30"
       inkscape:collect="always"><stop
         style="stop-color:#5f5f5f;stop-opacity:1;"
         offset="0.33389828"
         id="stop29" /><stop
         style="stop-color:#949494;stop-opacity:1;"
         offset="0.82033902"
         id="stop31" /><stop
         style="stop-color:#0e0e0e;stop-opacity:1;"
         offset="0.95932204"
         id="stop30" /></linearGradient><linearGradient
       id="linearGradient26"
       inkscape:collect="always"><stop
         style="stop-color:#0e0e0e;stop-opacity:1;"
         offset="0.68135595"
         id="stop27" /><stop
         style="stop-color:#383838;stop-opacity:0;"
         offset="1"
         id="stop28" /></linearGradient><linearGradient
       id="linearGradient25"
       inkscape:collect="always"><stop
         style="stop-color:#0e0e0e;stop-opacity:1;"
         offset="0.87796611"
         id="stop25" /><stop
         style="stop-color:#6f6f6f;stop-opacity:1;"
         offset="0.95084745"
         id="stop26" /><stop
         style="stop-color:#0e0e0e;stop-opacity:1;"
         offset="1"
         id="stop32" /></linearGradient><radialGradient
       inkscape:collect="always"
       xlink:href="#linearGradient30"
       id="radialGradient26"
       cx="120"
       cy="119.99998"
       fx="120"
       fy="119.99998"
       r="180"
       gradientUnits="userSpaceOnUse" /><linearGradient
       inkscape:collect="always"
       xlink:href="#linearGradient26"
       id="linearGradient28"
       x1="120"
       y1="-119.99998"
       x2="120"
       y2="199.99995"
       gradientUnits="userSpaceOnUse"
       gradientTransform="matrix(0.65045034,0,0,0.6215112,45.299952,135.69772)" /><radialGradient
       inkscape:collect="always"
       xlink:href="#linearGradient25"
       id="radialGradient26-2"
       cx="120"
       cy="119.99998"
       fx="120"
       fy="119.99998"
       r="180"
       gradientUnits="userSpaceOnUse"
       gradientTransform="matrix(1.2514153,0,0,1.2514153,-30.169813,-30.169784)" /><linearGradient
       inkscape:collect="always"
       xlink:href="#linearGradient35"
       id="linearGradient32"
       x1="-105.25475"
       y1="119.99998"
       x2="345.25476"
       y2="119.99998"
       gradientUnits="userSpaceOnUse"
       gradientTransform="translate(-245.17039,-5.4034269)" /><linearGradient
       inkscape:collect="always"
       xlink:href="#linearGradient36"
       id="linearGradient37"
       x1="-5.0734129"
       y1="119.99998"
       x2="245.07341"
       y2="119.99998"
       gradientUnits="userSpaceOnUse"
       gradientTransform="translate(-2.2888184e-5,-239.99998)" /><radialGradient
       inkscape:collect="always"
       xlink:href="#linearGradient41"
       id="radialGradient42"
       cx="120"
       cy="194.90125"
       fx="120"
       fy="194.90125"
       r="206.13474"
       gradientTransform="matrix(1,0,0,0.60687824,0,76.61992)"
       gradientUnits="userSpaceOnUse" /></defs><g
     inkscape:label="Layer 1"
     inkscape:groupmode="layer"
     id="layer1"
     transform="translate(105.25475,105.25476)"><circle
       style="fill:url(#radialGradient26-2);fill-opacity:1;stroke:none;stroke-width:1.03437;stroke-dasharray:none;stroke-opacity:0.275862"
       id="circle25-4"
       cy="120.00001"
       cx="119.99998"
       r="225.25475"
       inkscape:export-filename="0.png"
       inkscape:export-xdpi="22.549999"
       inkscape:export-ydpi="22.549999" /><g
       id="g1"><circle
         style="fill:url(#linearGradient32);stroke:none;stroke-width:1.03437;stroke-dasharray:none;stroke-opacity:0.275862"
         id="circle32"
         cy="114.59655"
         cx="-125.17038"
         r="225.25475"
         transform="rotate(-92.525136)" /><path
         id="circle25"
         style="fill:url(#radialGradient26);fill-opacity:1;stroke:none;stroke-width:0.82656;stroke-dasharray:none;stroke-opacity:0.275862"
         d="M -45.763098,189.33366 A 180,180 0 0 0 119.99991,299.99978 180,180 0 0 0 285.76292,189.33366 Z" /><rect
         style="fill:url(#linearGradient28);stroke:none;stroke-width:0.635818;stroke-dasharray:none;stroke-opacity:0.275862"
         id="rect26"
         width="331.52621"
         height="198.88356"
         x="-45.7631"
         y="61.116383" /><ellipse
         style="fill:url(#radialGradient42);fill-opacity:1;stroke:none;stroke-width:2;stroke-dasharray:none;stroke-opacity:1"
         id="path41"
         cx="120"
         cy="194.90125"
         rx="206.13474"
         ry="125.09869" /></g><path
       style="font-size:42.3333px;font-family:'Eras Bold ITC';-inkscape-font-specification:'Eras Bold ITC';text-align:end;text-anchor:end;stroke:#c1c1c1;stroke-width:2"
       d="m 260.70574,266.94475 c 0.90813,3.04389 1.6327,5.4173 2.23234,7.23275 0.882,2.67422 2.06006,6.12013 3.52651,10.34025 1.13022,3.24414 1.94447,5.51771 2.48743,6.90532 l 0.88113,2.25183 c -1.6631,0.60554 -3.27832,1.17937 -4.46928,1.60712 -2.08087,0.74738 -2.66811,0.96984 -4.74897,1.71721 -1.95608,0.71288 -3.81912,1.32092 -5.57551,1.833 -2.01146,0.58645 -3.81876,0.96079 -5.3981,1.14207 -1.581,0.18148 -3.11345,0.0874 -4.58103,-0.27774 -1.48307,-0.36171 -2.78219,-1.00055 -3.89382,-1.90437 -1.11222,-0.90431 -2.03861,-2.05054 -2.78714,-3.43202 -0.7458,-1.36792 -1.26277,-2.8318 -1.56819,-4.38635 -0.30005,-1.52724 -0.41877,-3.0345 -0.36945,-4.5189 0.052,-1.47076 0.25371,-2.83326 0.59797,-4.08626 0.34435,-1.25331 0.8092,-2.3739 1.39307,-3.36361 0.57384,-0.97366 1.27209,-1.86074 2.09397,-2.66649 0.61082,-0.59949 1.24312,-1.11036 1.90065,-1.53381 0.65917,-0.42449 1.58348,-0.87018 2.77752,-1.3578 1.33095,-0.53986 2.8503,-1.0661 4.57249,-1.60367 2.54194,-0.77182 5.0613,-1.61223 7.55429,-2.52172 0.67937,-0.25385 1.85295,-0.71947 3.37413,-1.37679 z m -6.00818,8.84039 c -0.73617,0.17422 -1.4945,0.38631 -2.27731,0.63541 -1.33111,0.42356 -2.48598,0.9012 -3.47148,1.44698 -0.98463,0.54529 -1.76812,1.31416 -2.3582,2.31641 -0.60306,1.00518 -0.94832,2.17068 -1.02748,3.49959 -0.0757,1.34242 0.0442,2.66166 0.37455,3.95595 0.40543,1.58858 1.04817,2.84453 1.94871,3.76335 0.903,0.93111 1.94002,1.46808 3.10219,1.60294 1.14598,0.13868 2.62161,-0.0503 4.3995,-0.59251 1.03897,-0.31686 2.2577,-0.74232 3.63646,-1.2837 -1.41923,-5.12173 -2.86154,-10.23659 -4.32694,-15.34442 z m -23.73641,-0.38142 c 0.33126,3.04746 0.65057,6.09674 0.95795,9.14777 0.23033,1.743 0.45845,3.48636 0.68437,5.23007 0.14649,0.93941 0.30341,1.89826 0.47102,2.87599 0.16971,0.98991 0.39534,2.21946 0.6764,3.67955 -1.72718,0.27034 -3.28445,0.49466 -4.2716,0.63996 -1.21112,0.17827 -2.66826,0.39364 -4.25251,0.6155 -0.0648,-0.7768 -0.12995,-1.55354 -0.19551,-2.33025 -0.49863,0.67199 -0.92117,1.17378 -1.25805,1.50347 -0.3359,0.34395 -0.72966,0.65875 -1.18133,0.94324 -0.4502,0.2982 -0.93229,0.52858 -1.44487,0.69042 -0.51119,0.17556 -1.05226,0.28944 -1.62164,0.34085 -0.53932,0.0487 -1.14528,0.0317 -1.81529,-0.0528 -0.13455,-1.49638 -0.27053,-2.73272 -0.40638,-3.70326 -0.13521,-1.05459 -0.2695,-2.10929 -0.40287,-3.1641 0.80985,0.15789 1.56318,0.20407 2.25533,0.1409 0.8653,-0.079 1.60304,-0.27736 2.20959,-0.59019 0.5937,-0.29765 1.10594,-0.72171 1.53466,-1.27015 0.41613,-0.53327 0.72082,-1.18016 0.91524,-1.93967 0.19466,-0.76044 0.24863,-1.93202 0.1634,-3.51988 -0.0853,-1.58851 -0.25685,-3.39075 -0.51084,-5.41671 -0.0893,-0.71214 -0.22642,-1.58932 -0.41063,-2.63698 1.27733,-0.13048 2.55766,-0.29095 3.83967,-0.48184 1.26793,-0.1888 2.62546,-0.42072 4.06382,-0.70184 3e-5,0 5e-5,-10e-6 7e-5,-10e-6 z m -17.12158,25.85351 c 0.003,1.64652 0.0301,2.93918 0.0844,3.89184 0.0157,0.27527 0.0446,0.64705 0.0869,1.11424 -1.85395,0.08 -3.51067,0.13286 -4.75549,0.17343 -1.71194,0.0558 -3.36382,0.0989 -4.63909,0.13579 0.0436,-0.42804 0.0719,-0.78742 0.0851,-1.0772 -1e-5,2e-5 0.11714,-2.56807 0.11714,-2.56806 0.0272,-0.38678 0.0383,-0.84212 0.0335,-1.36663 1.50644,0.0134 2.95322,-0.005 4.33728,-0.0503 1.42852,-0.047 2.98219,-0.12844 4.65028,-0.25312 -1e-5,0 -1e-5,0 -1e-5,0 z m -0.1171,-23.79154 c -0.0755,1.69767 -0.12896,3.07725 -0.15575,4.17719 -0.0266,1.09301 -0.0293,2.49007 -0.009,4.1882 0.006,1.69843 0.0346,3.5783 0.0853,5.6333 0.0507,2.05371 0.13308,4.44419 0.24754,7.15742 -1.89314,0.0852 -3.56267,0.13773 -4.67666,0.17492 -0.98634,0.0329 -2.67109,0.0945 -4.58818,0.13682 0.23383,-2.60618 0.3931,-4.90723 0.4866,-6.87765 0.0793,-1.97535 0.11767,-4.0649 0.11868,-6.27401 0.008,-3.89867 5e-5,-6.60414 -0.0175,-7.99069 1.57471,0.009 2.94527,-0.0167 4.08058,-0.0589 1.11339,-0.0413 2.61827,-0.1222 4.42853,-0.26662 -1e-5,0 -2e-5,0 -2e-5,0 z m -18.30599,0.15001 c 0.59565,2.29497 1.22072,4.58674 1.87522,6.87468 1.48682,4.83759 3.11385,9.65546 4.88097,14.44695 -1.70374,-0.0362 -3.30592,-0.0824 -4.76878,-0.12797 -1.5177,-0.0473 -2.97996,-0.0982 -4.31821,-0.14401 -0.21366,-1.01786 -0.59943,-2.60767 -1.1902,-5.08975 -0.5781,-2.41148 -1.17447,-5.29723 -1.75522,-8.63279 -0.22394,0.55745 -0.44967,1.11448 -0.67718,1.67108 -0.10045,0.19972 -0.49712,1.05493 -1.21249,2.55947 -1.38874,2.93644 -2.83529,5.8569 -4.33924,8.75954 -1.60413,-0.19617 -3.13045,-0.392 -4.55381,-0.57751 -1.47022,-0.19163 -3.00588,-0.39598 -4.59382,-0.61593 1.33819,-1.86548 2.64369,-3.74514 3.91623,-5.63804 2.40485,-3.77738 4.68754,-7.60184 6.84643,-11.46701 0.46769,-0.88026 0.92935,-1.76243 1.38497,-2.64644 1.55366,0.18285 2.93728,0.31271 4.12635,0.40134 1.29609,0.0966 2.7613,0.17663 4.37878,0.22639 z m -39.40898,-0.24749 c 0.39009,-0.72091 1.30287,-2.59109 2.63047,-5.48321 1.57103,0.11404 2.8622,0.24318 3.90204,0.41029 1.03934,0.15313 2.07822,0.3526 3.12015,0.59854 1.53114,0.36142 2.91746,0.78564 4.16768,1.28531 1.25244,0.48593 2.30243,1.0968 3.15456,1.84492 0.83901,0.74567 1.51368,1.59284 2.02272,2.54797 0.50645,0.96825 0.84453,2.06615 1.00836,3.29468 0.15023,1.22646 0.13223,2.4603 -0.0651,3.70056 -0.27745,1.74433 -0.90354,3.39283 -1.90853,4.93339 -1.00735,1.55436 -2.18128,2.69732 -3.51992,3.42195 -1.35224,0.72142 -2.84738,1.12425 -4.46995,1.19849 -1.62267,0.0743 -3.24739,-0.0771 -4.85863,-0.45382 -1.66966,-0.39036 -3.21059,-0.96662 -4.61011,-1.71849 -1.41789,-0.74251 -2.51821,-1.70696 -3.29558,-2.87489 -0.77767,-1.16836 -1.20469,-2.36709 -1.29601,-3.58805 -0.10536,-1.22586 0.0406,-2.47015 0.42442,-3.73636 0.228,-0.75209 0.57043,-1.56175 1.02387,-2.43306 4.71766,1.41277 9.50079,2.62065 14.32945,3.62172 0.059,-0.21316 0.10674,-0.40758 0.14341,-0.58311 0.3047,-1.45842 0.004,-2.63903 -0.88032,-3.55201 -0.88431,-0.91336 -2.05516,-1.53812 -3.52805,-1.89524 -0.87653,-0.21253 -1.89316,-0.36005 -3.0575,-0.45139 -1.18642,-0.0818 -2.65089,-0.10259 -4.43743,-0.0882 -2e-5,10e-6 -3e-5,10e-6 -4e-5,2e-5 z m 10.94378,9.63378 c -2.3137,-0.48588 -4.61704,-1.01849 -6.90793,-1.5976 -0.0714,0.22377 -0.12738,0.41577 -0.16798,0.57622 -0.17591,0.69525 -0.1939,1.32343 -0.0502,1.88566 0.12958,0.55846 0.41499,1.01338 0.85649,1.3623 0.42727,0.34543 0.94874,0.59112 1.562,0.73446 0.42783,0.1 0.85745,0.12793 1.28738,0.0838 0.42693,-0.0307 0.83278,-0.13832 1.21656,-0.32238 0.3666,-0.17373 0.69101,-0.39993 0.97334,-0.67793 0.28231,-0.27797 0.50537,-0.56208 0.66995,-0.8515 0.16174,-0.27596 0.34872,-0.67358 0.56032,-1.193 10e-6,0 3e-5,0 4e-5,10e-6 z"
       id="text37"
       aria-label="Drive"
       transform="rotate(-36.09553,153.46736,251.0697)"
       inkscape:transform-center-x="-101.25183"
       inkscape:transform-center-y="121.9542"
       inkscape:original-d="m 263.17402,270.28476 q -0.45475,4.71289 -0.62011,7.54476 -0.24805,4.21679 -0.4961,10.91405 -0.18603,5.1263 -0.18603,7.33805 v 2.41845 q -2.41846,-0.062 -4.17546,-0.062 -1.69498,0 -4.44417,0.0827 -2.74918,0.10335 -5.16763,0.10335 -2.76986,0 -4.85759,-0.33073 -2.08772,-0.33073 -3.88606,-1.36426 -1.81901,-1.03353 -3.03857,-2.70784 -1.21957,-1.67432 -1.86035,-3.92741 -0.64079,-2.23242 -0.64079,-4.60953 0,-2.33577 0.49609,-4.50618 0.4961,-2.14974 1.38493,-3.88607 0.88883,-1.73632 2.08773,-2.99723 1.17822,-1.24023 2.70784,-2.12907 1.13688,-0.66145 2.29443,-1.03352 1.15755,-0.37207 3.1626,-0.59945 2.23242,-0.24805 5.06428,-0.24805 l 8.35091,0.062 q 1.17822,0 3.82405,-0.062 z m -8.92968,6.22184 q -1.13688,-0.10335 -2.37711,-0.10335 -2.1084,0 -3.76204,0.37207 -1.65365,0.37207 -2.89388,1.59163 -1.26091,1.21956 -1.86035,3.12126 -0.59945,1.92236 -0.59945,3.9274 0,2.4598 0.88884,4.13411 0.88883,1.69499 2.37711,2.35645 1.46761,0.66146 4.01009,0.66146 1.48828,0 3.51399,-0.12403 z m -23.50242,-6.22184 -0.64079,9.17773 -0.20671,5.27099 q -0.0207,1.42627 -0.0207,2.91455 0,1.50895 0.0413,3.74137 -2.50113,-0.0413 -3.96874,-0.0413 -1.71566,0 -3.94808,0.0413 l 0.0827,-2.33577 q -0.80615,0.9095 -1.32291,1.34359 -0.51677,0.45475 -1.17823,0.80615 -0.66145,0.37207 -1.38492,0.53743 -0.72347,0.18604 -1.50895,0.18604 -0.74414,0 -1.65365,-0.20671 -0.0207,-2.25309 -0.10335,-3.7207 l -0.14469,-3.18326 q 1.13688,0.33072 2.12906,0.33072 1.24024,0 2.14974,-0.37207 0.88883,-0.35139 1.59163,-1.09553 0.68213,-0.72347 1.09554,-1.81901 0.41341,-1.09554 0.57878,-3.47266 0.16536,-2.37711 0.16536,-5.43635 0,-1.07487 -0.0827,-2.66651 2.00505,0.0413 4.03076,0.0413 2.00504,0 4.29948,-0.0413 z m -19.38899,23.7298 q -0.12402,2.4598 -0.12402,3.88607 0,0.41341 0.0207,1.11621 -2.50114,-0.0413 -4.19612,-0.0413 -2.33578,0 -4.09277,0.0413 0.062,-0.64079 0.0827,-1.07487 l 0.12402,-2.56315 q 0.0413,-0.57877 0.0413,-1.36426 2.04639,0.0414 3.92741,0.0414 1.94303,0 4.21679,-0.0414 z m 1.30225,-23.7298 q -0.28939,2.52181 -0.43408,4.15479 -0.1447,1.63297 -0.26872,4.17545 -0.14469,2.54248 -0.24805,5.62239 -0.10335,3.07991 -0.16536,7.15201 -2.68717,-0.0413 -4.29948,-0.0413 -1.46761,0 -4.21679,0.0413 0.3514,-3.90673 0.51676,-6.86262 0.1447,-2.95589 0.18604,-6.26318 0.0827,-5.87044 0.0827,-7.97884 2.4598,0.0413 4.23746,0.0413 1.757,0 4.60954,-0.0413 z m -19.01691,0 2.19108,6.77995 4.94026,14.32469 q -2.35644,-0.0413 -4.38216,-0.0413 -2.1084,0 -3.96875,0.0413 -0.3514,-1.42627 -1.38492,-5.00227 -1.03353,-3.55534 -2.27376,-8.47493 l -0.53744,1.71566 q -0.12402,0.31005 -0.97152,2.64583 l -3.28661,9.11571 q -2.23242,-0.0413 -4.2168,-0.0413 -2.04638,0 -4.25813,0.0413 l 2.85253,-6.13915 5.31234,-12.19563 1.13688,-2.76986 q 2.43912,0.0413 4.29947,0.0413 2.02572,0 4.54753,-0.0413 z m -39.72881,6.24251 q 0.26872,-1.24023 1.03353,-5.99446 2.39778,-0.47542 4.03076,-0.62012 1.63297,-0.16536 3.30729,-0.16536 2.45979,0 4.52685,0.3514 2.06705,0.33073 3.576,1.19889 1.48828,0.86816 2.50114,2.14974 1.01285,1.30224 1.55029,3.07991 0.51676,1.77767 0.51676,3.65869 0,2.64583 -1.0542,5.16764 -1.05419,2.54248 -2.70783,3.96875 -1.67432,1.42627 -3.84473,2.02571 -2.17041,0.59945 -4.44417,0.59945 -2.35644,0 -4.48551,-0.55811 -2.14974,-0.53743 -3.63802,-1.90169 -1.48828,-1.36425 -2.10839,-3.07991 -0.64079,-1.71566 -0.64079,-3.70003 0,-1.17822 0.26872,-2.62516 l 14.49006,-0.0207 q 0.0207,-0.33073 0.0207,-0.59945 0,-2.23242 -1.59164,-3.28662 -1.59163,-1.0542 -3.88606,-1.0542 -1.36426,0 -3.10059,0.31006 -1.75699,0.33073 -4.32014,1.09554 z m 12.71239,6.69726 h -6.82128 q -0.0207,0.3514 -0.0207,0.59945 0,1.07487 0.39274,1.83968 0.37207,0.76481 1.09554,1.11621 0.7028,0.3514 1.59163,0.3514 0.62012,0 1.19889,-0.20671 0.57878,-0.18603 1.0542,-0.57877 0.45475,-0.37207 0.76481,-0.86817 0.31006,-0.49609 0.45476,-0.97151 0.14469,-0.45475 0.28938,-1.28158 z"
       inkscape:path-effect="#path-effect38"
       class="UnoptimicedTransforms" /><circle
       style="fill:#bebebe;fill-opacity:1;stroke:none;stroke-width:0.755844;stroke-dasharray:none;stroke-opacity:1"
       id="circle23"
       cx="119.99998"
       cy="120.00001"
       r="128.60764" /><path
       style="font-size:42.3333px;font-family:'Eras Bold ITC';-inkscape-font-specification:'Eras Bold ITC';text-align:end;text-anchor:end;stroke:#c1c1c1;stroke-width:2"
       d="m 111.80563,290.43155 c -0.1898,-0.80888 -0.48849,-1.93131 -0.89814,-3.35471 -0.40334,-1.40957 -0.74575,-2.50009 -1.01482,-3.25533 2.51087,-1.67757 4.76099,-3.06983 6.82768,-4.1709 1.98759,-1.05893 3.95051,-1.83783 5.92067,-2.33671 1.96387,-0.47968 3.97234,-0.61318 6.04953,-0.4019 2.07144,0.23033 3.88074,0.85811 5.422,1.9162 1.53981,1.05711 2.90456,2.47235 4.06868,4.26211 1.36037,2.09146 2.16163,4.24165 2.36211,6.47368 0.19473,2.24976 -0.19891,4.46927 -1.20859,6.64033 -1.01554,2.19012 -2.44223,4.14582 -4.26756,5.8363 -1.81821,1.70218 -3.88784,3.16557 -6.18829,4.36769 -2.10853,1.10183 -4.87652,2.20728 -8.26737,3.22036 -0.26112,-0.51788 -0.52212,-1.03581 -0.783,-1.5538 -0.35173,-0.67394 -0.74944,-1.40908 -1.19341,-2.20751 -0.38391,-0.68901 -0.76726,-1.3783 -1.15004,-2.06788 1.81022,-0.42049 3.26787,-0.8374 4.34739,-1.21793 1.06952,-0.37502 2.03647,-0.7867 2.89853,-1.22985 1.87775,-0.96529 3.38022,-2.19361 4.49218,-3.65547 1.11263,-1.46277 1.72087,-3.05581 1.83481,-4.76073 0.11402,-1.70603 -0.27914,-3.29917 -1.14842,-4.78855 -0.79262,-1.35803 -1.80913,-2.33057 -3.03216,-2.93086 -1.21719,-0.58884 -2.52868,-0.84157 -3.94127,-0.76807 -1.41945,0.0926 -2.94257,0.57698 -4.59844,1.44294 -0.90464,0.47309 -1.85313,1.0456 -2.85322,1.71648 -1.01118,0.6927 -2.22093,1.63194 -3.67881,2.82409 -1e-5,10e-6 -3e-5,10e-6 -4e-5,2e-5 z m -2.12664,9.97986 c 0.2812,1.37376 0.47998,2.296 0.6129,2.80141 0.13416,0.50225 0.34785,1.31815 0.62263,2.39039 -3.76072,2.55018 -7.23445,4.34269 -10.27065,5.43231 -1.733623,0.62215 -3.391968,0.99191 -4.957829,1.11647 -1.56176,0.13766 -2.873381,-0.0649 -3.924498,-0.59005 -1.053101,-0.52616 -1.790475,-1.51909 -2.230114,-2.96944 -0.226986,-0.74882 -0.614413,-2.42148 -1.193542,-5.07899 -0.578059,-2.6526 -1.45673,-6.07359 -2.642731,-10.29837 1.305059,-0.37503 2.595921,-0.77707 3.8716,-1.20514 1.235688,-0.41465 2.543415,-0.88356 3.917128,-1.41075 0.333546,1.49664 1.18839,4.50674 2.550422,9.06069 0.440793,-0.42136 0.789612,-0.73811 1.054021,-0.95249 0.253019,-0.21132 0.703393,-0.5497 1.364796,-1.03495 0.656478,-0.48164 1.169121,-0.87953 1.532307,-1.18212 0.35124,-0.29868 0.63862,-0.61865 0.86217,-0.9589 0.21009,-0.33492 0.33552,-0.6448 0.37745,-0.9288 0.0286,-0.27875 -0.0139,-0.55893 -0.12656,-0.84075 -0.17413,-0.43558 -0.50226,-0.73489 -0.98175,-0.90079 -0.479619,-0.16595 -1.107975,-0.0956 -1.890325,0.20553 -0.278485,0.10721 -0.569617,0.24065 -0.873949,0.40019 -0.299978,0.17275 -0.694048,0.4536 -1.188466,0.84248 0.01936,-1.13656 -0.06436,-2.76662 -0.268145,-4.86986 1.047154,-0.6042 2.062076,-1.10579 3.052625,-1.50382 1.59523,-0.64101 3.00494,-0.98114 4.25307,-1.00665 1.2397,-0.007 2.3629,0.33987 3.37623,1.05081 1.00043,0.71671 1.72644,1.55367 2.16499,2.52175 0.26768,0.59088 0.42505,1.21672 0.4687,1.8784 0.0304,0.66748 -0.0663,1.37699 -0.29426,2.12731 -0.22799,0.75036 -0.57797,1.45437 -1.05071,2.10969 -0.4667,0.66719 -1.18202,1.40936 -2.15036,2.21363 -0.98038,0.80857 -2.28143,1.71805 -3.90144,2.69759 -0.67511,0.40845 -1.28741,0.79472 -1.837671,1.16194 -0.560113,0.38583 -0.94744,0.67331 -1.164142,0.87017 -0.225221,0.2142 -0.390058,0.42034 -0.494146,0.61909 -0.113536,0.2168 -0.178093,0.41565 -0.193191,0.59681 -0.01045,0.1941 0.01669,0.38205 0.08174,0.56377 0.176522,0.49316 0.539391,0.78855 1.091363,0.88236 0.556011,0.10666 1.280246,-0.003 2.165476,-0.33383 2.45137,-0.91744 5.24469,-2.73358 8.21486,-5.4771 z m -28.445835,-5.88252 c 0.612838,3.0023 1.214208,6.00712 1.804062,9.01442 0.393676,1.71211 0.785228,3.42471 1.174652,5.1378 0.235462,0.92027 0.483438,1.85879 0.744147,2.81498 0.26398,0.9682 0.607151,2.16891 1.028271,3.59371 -1.76571,0.45217 -3.340389,0.83514 -4.353758,1.08459 -1.234412,0.30385 -2.721602,0.6704 -4.338403,1.05514 -0.137819,-0.76545 -0.276028,-1.53082 -0.414627,-2.29612 -0.45429,0.71997 -0.84535,1.26249 -1.16359,1.62503 -0.315917,0.37661 -0.694304,0.7301 -1.135396,1.0593 -0.438318,0.34267 -0.915853,0.62108 -1.431253,0.83437 -0.512715,0.22678 -1.062051,0.39519 -1.646484,0.50425 -0.553562,0.10331 -1.182188,0.14806 -1.88339,0.13189 -0.275838,-1.47197 -0.529447,-2.68562 -0.758666,-3.63538 -0.236204,-1.03327 -0.471461,-2.06673 -0.705767,-3.10037 0.852355,0.0743 1.636017,0.0431 2.346329,-0.0908 0.887969,-0.16738 1.633196,-0.44083 2.231953,-0.8145 0.586986,-0.35735 1.078153,-0.83215 1.471641,-1.42209 0.381846,-0.57352 0.638111,-1.24859 0.770091,-2.02416 0.132136,-0.77648 0.08134,-1.94716 -0.15134,-3.51707 -0.232774,-1.57053 -0.574288,-3.34467 -1.021477,-5.33236 -0.15719,-0.69868 -0.378966,-1.55643 -0.665004,-2.57858 1.312011,-0.26758 2.625363,-0.56657 3.93891,-0.89705 1.299373,-0.32692 2.688186,-0.70738 4.159099,-1.14699 z m -37.946836,12.01986 c 0.160359,-0.80248 0.479323,-2.86132 0.884959,-6.0124 1.588881,-0.36468 2.901538,-0.63394 3.981043,-0.79271 1.073547,-0.17174 2.160891,-0.3012 3.265738,-0.38945 1.623765,-0.12969 3.123914,-0.15929 4.514666,-0.0777 1.388472,0.0679 2.61695,0.3145 3.695563,0.75228 1.064323,0.43939 1.999931,1.02545 2.807005,1.76559 0.808726,0.75336 1.493286,1.68216 2.048094,2.78996 0.540739,1.11018 0.918139,2.28096 1.120705,3.51532 0.284869,1.73589 0.195089,3.49335 -0.304376,5.26957 -0.497389,1.79001 -1.29201,3.24451 -2.384772,4.3551 -1.107173,1.11183 -2.458821,1.96704 -4.044187,2.54983 -1.585053,0.58268 -3.246082,0.95046 -4.966992,1.09775 -1.783473,0.15264 -3.499623,0.0858 -5.13168,-0.19449 -1.647428,-0.26577 -3.049667,-0.84348 -4.193571,-1.7157 -1.144391,-0.87257 -1.947905,-1.88333 -2.423065,-3.01784 -0.490712,-1.13499 -0.735921,-2.36423 -0.75111,-3.68628 -0.009,-0.78529 0.07783,-1.6598 0.255441,-2.6265 5.132757,-0.0754 10.252895,-0.405 15.344723,-0.97499 -0.0096,-0.22017 -0.02434,-0.41911 -0.044,-0.59669 -0.163356,-1.47543 -0.836638,-2.49744 -1.999765,-3.08562 -1.163665,-0.58846 -2.517853,-0.81599 -4.086346,-0.70005 -0.933546,0.069 -1.984857,0.24164 -3.165632,0.51091 -1.200976,0.28536 -2.654217,0.71078 -4.422439,1.26405 0,1e-5 10e-7,2e-5 10e-7,2e-5 z m 13.887151,5.76233 c -2.444159,0.26782 -4.895035,0.4816 -7.350985,0.63991 7.6e-5,0.2343 0.0053,0.43369 0.01587,0.59841 0.04567,0.71377 0.226797,1.31511 0.547747,1.80372 0.305691,0.4894 0.733415,0.83221 1.282453,1.02569 0.533804,0.1946 1.129472,0.26503 1.78346,0.20943 0.456256,-0.0388 0.891259,-0.14663 1.303501,-0.32298 0.413511,-0.16265 0.78157,-0.39171 1.103248,-0.68627 0.307947,-0.2794 0.557258,-0.59531 0.748297,-0.94702 0.191022,-0.35168 0.321332,-0.6906 0.392024,-1.01613 0.07217,-0.31192 0.130532,-0.74686 0.174384,-1.30476 0,0 -10e-7,0 -10e-7,0 z M 37.659284,300.33541 c -0.300328,2.67874 -0.688588,7.65726 -1.249646,15.15033 0.574297,0.012 1.148789,0.021 1.723453,0.0269 0.350653,0.003 0.701249,0.004 1.051782,0.005 -0.04674,0.4284 -0.10973,1.33482 -0.192096,2.72757 -0.09795,1.39477 -0.157431,2.39356 -0.176166,3.01696 -0.245357,-4.9e-4 -0.490752,-0.002 -0.736184,-0.003 -0.870406,-0.01 -1.740328,-0.0264 -2.609697,-0.0497 0.002,0.5514 -0.0019,1.02629 -0.01179,1.42581 -0.03143,1.26768 -0.12739,2.25551 -0.291256,2.96823 -0.179807,0.71151 -0.479619,1.3088 -0.902025,1.79087 -0.438952,0.49511 -1.042529,0.92131 -1.812055,1.27363 -0.786443,0.36536 -1.662538,0.59089 -2.623306,0.67301 -0.977126,0.0812 -1.9846,0.0838 -3.018712,0.007 -0.951865,-0.0711 -1.973115,-0.21003 -3.059148,-0.42006 -1.102463,-0.19763 -2.407283,-0.54857 -3.894523,-1.06335 0.196686,-2.17676 0.297328,-3.99686 0.30459,-5.44779 1.502259,0.67148 2.891914,1.05999 4.145079,1.17397 0.857029,0.078 1.547287,-0.0381 2.065148,-0.34201 0.502866,-0.30564 0.785407,-0.91903 0.853525,-1.83866 0.0074,-0.20643 0.01484,-0.41286 0.02231,-0.61928 -1.796462,-0.13498 -3.589598,-0.29811 -5.378792,-0.48895 0.291559,-1.55981 0.614563,-3.44845 0.96684,-5.66613 1.564299,0.16307 3.131383,0.30401 4.700795,0.42251 0.626931,-5.01705 1.230858,-10.03671 1.811698,-15.05888 1.62241,0.14017 3.031946,0.22474 4.192403,0.27152 1.175203,0.0474 2.557375,0.075 4.117775,0.0653 z m -38.41124967,-5.53015 c 1.50318639,0.44271 2.78391327,0.78661 3.79436287,1.03858 1.2585471,0.31385 2.5303217,0.60048 3.8142449,0.859 -0.1981181,0.92155 -0.3961156,1.84313 -0.5939924,2.76473 0.6279815,-0.49494 1.1410237,-0.86116 1.5477726,-1.09803 0.4032353,-0.22304 0.8314915,-0.40668 1.2850938,-0.55159 0.4401098,-0.14774 0.9271689,-0.2591 1.4617129,-0.33558 0.518515,-0.0657 1.109687,-0.0841 1.775428,-0.058 0.652108,0.0236 1.308273,0.0929 1.970402,0.2075 1.067518,0.18483 2.060309,0.47767 2.985498,0.88295 0.913436,0.38952 1.697673,0.93115 2.357793,1.631 0.646249,0.69785 1.06473,1.44345 1.247695,2.24268 0.168906,0.79688 0.194648,1.70144 0.07102,2.71137 -0.03004,0.24542 -0.09815,0.62578 -0.204627,1.13897 -0.304524,1.53551 -0.612408,3.07046 -0.923645,4.60486 -0.316013,1.69233 -0.651444,3.57189 -1.005582,5.63354 -0.221834,1.26168 -0.405762,2.45762 -0.550079,3.5905 -1.894763,-0.26903 -3.579362,-0.53073 -4.896382,-0.73661 -1.351139,-0.21121 -2.865693,-0.45027 -4.4921894,-0.71968 0.7103631,-2.53411 1.4102004,-5.07058 2.0994744,-7.60937 0.312909,-1.157 0.515235,-1.95793 0.606194,-2.38604 0.07463,-0.41984 0.125193,-0.70425 0.151677,-0.85323 0.252671,-1.42135 0.122374,-2.43749 -0.378735,-3.04587 -0.516413,-0.61238 -1.185166,-0.99738 -2.0136379,-1.16117 -0.3370808,-0.0666 -0.683295,-0.0871 -1.0395425,-0.0616 -0.3562386,0.0255 -0.7071133,0.0931 -1.0532699,0.20304 -0.3011277,0.1053 -0.5903967,0.25461 -0.868112,0.44814 -0.2946849,0.20393 -0.5738966,0.46703 -0.8376951,0.78948 -0.3239808,0.39373 -0.6005406,0.83278 -0.8284512,1.31769 -0.315446,0.67646 -0.6396923,1.54949 -0.9712957,2.61692 -0.2380919,0.78507 -0.6230421,2.12421 -1.1695956,4.05277 -0.3771187,1.38904 -0.7556988,2.77772 -1.1357389,4.16606 -1.91921237,-0.46308 -3.6012518,-0.894 -4.8169283,-1.20509 -1.4060716,-0.35982 -2.819615,-0.7253 -4.2391135,-1.09648 1.2955546,-3.26623 2.4522822,-6.40078 3.4795863,-9.38544 1.0297741,-2.99184 2.1487777,-6.5144 3.37066553,-10.59604 -9.7e-7,0 -1.93e-6,0 -2.9e-6,0 z m -4.46240773,-1.27749 c -0.5518934,1.37946 -1.1069993,2.75783 -1.6653104,4.13512 -1.7801204,4.83456 -3.5844812,9.6613 -5.4129662,14.48005 -0.910107,2.61634 -1.823892,5.23152 -2.741349,7.84553 -2.057189,-0.67324 -3.823091,-1.2843 -4.811968,-1.62351 -1.385387,-0.47523 -2.940576,-1.01191 -4.611173,-1.60326 0.913614,-1.91778 1.821624,-3.83786 2.724012,-5.76022 2.077854,-4.78707 4.133314,-9.58282 6.166272,-14.3871 0.766356,-1.93585 1.530761,-3.87241 2.293212,-5.80968 1.380727,0.53182 2.642,0.98473 3.7677792,1.364 1.4249569,0.4728 2.8556285,0.92594 4.2914914,1.35907 z M -17.63153,289.1717 c -0.660471,1.33261 -1.32398,2.66391 -1.990518,3.99389 -2.160277,4.68283 -4.343503,9.35609 -6.549562,14.01964 -1.115395,2.5386 -2.234275,5.07578 -3.356636,7.61152 -1.993461,-0.83316 -3.705178,-1.58191 -4.662002,-1.99729 -1.341376,-0.58233 -2.84839,-1.23954 -4.464954,-1.95937 1.0608,-1.84202 2.116315,-3.68675 3.166525,-5.53416 2.446574,-4.61367 4.871989,-9.23768 7.276138,-13.87188 0.916025,-1.87145 1.830204,-3.74376 2.742535,-5.61692 1.337802,0.63885 2.562463,1.19012 3.657478,1.65754 1.3866,0.5844 2.78044,1.15019 4.180996,1.69703 z m -6.474103,-13.14954 c -1.042436,3.1308 -1.666292,5.14994 -1.865204,5.91608 -0.600167,-0.73947 -1.15462,-1.31925 -1.673149,-1.74032 -0.530478,-0.4268 -1.005212,-0.74628 -1.429017,-0.95772 -0.447774,-0.2234 -0.895162,-0.372 -1.343944,-0.44574 -0.46089,-0.0799 -0.853087,-0.0881 -1.177516,-0.0228 -0.318069,0.053 -0.705271,0.19369 -1.163519,0.42102 -0.470557,0.22108 -0.843788,0.42914 -1.119561,0.62694 -0.26911,0.18543 -0.600067,0.48619 -0.993792,0.90177 -0.694437,4.07617 -1.303456,8.18141 -1.825364,12.3126 -0.399565,3.44372 -0.737084,6.90555 -1.011534,10.38359 -1.958367,-0.96628 -3.653115,-1.84151 -4.361725,-2.20331 -0.908593,-0.46391 -2.362232,-1.20043 -3.971608,-2.03984 0.244278,-1.07537 0.638105,-2.94836 1.220193,-5.60456 0.566095,-2.65071 1.08969,-4.72714 1.516407,-6.16607 0.233317,-0.80274 0.583534,-1.79281 1.052281,-2.97011 -0.403607,0.40547 -0.808328,0.81007 -1.214161,1.21381 -0.343992,0.31069 -0.741106,0.66619 -1.186893,1.06111 -0.445773,0.39489 -0.994999,0.86126 -1.644444,1.39233 -1.045633,0.84482 -2.098764,1.68304 -3.159301,2.51454 -1.680157,1.24257 -3.378964,2.4677 -5.09603,3.67496 -1.563496,-0.9815 -2.968635,-1.8891 -3.722669,-2.37172 -0.605443,-0.38752 -2.178907,-1.38314 -3.924158,-2.52989 2.922297,-1.6521 5.797717,-3.35858 8.624257,-5.11737 5.187699,-3.2999 10.210608,-6.77414 15.056631,-10.41009 0.869296,-0.57965 1.617812,-1.00783 2.250814,-1.28189 0.582254,-0.2393 1.160379,-0.41114 1.73498,-0.51575 0.538057,-0.0935 1.076401,-0.12547 1.616016,-0.0961 0.729476,0.0393 1.481592,0.16544 2.259258,0.37705 0.853505,0.23643 1.673341,0.5567 2.463918,0.96244 0.361196,0.18537 0.821109,0.45858 1.387068,0.81934 0.572223,0.34847 1.030191,0.64268 1.376941,0.88902 0.34117,0.22829 0.779721,0.56348 1.324825,1.00675 z"
       id="text38"
       aria-label="Carefully"
       transform="rotate(26.09432,140.12525,307.13963)"
       inkscape:transform-center-x="62.342029"
       inkscape:transform-center-y="130.02624"
       inkscape:original-d="m 111.32793,277.16806 q 0.24805,-1.21956 0.59945,-3.41064 0.3514,-2.17041 0.47542,-3.3693 4.4235,-0.64079 7.89616,-0.64079 3.34863,0 6.2425,0.82682 2.87321,0.84749 5.29167,2.74919 2.39778,1.92236 3.43131,4.50618 1.03353,2.58382 1.03353,5.78775 0,3.74137 -1.38493,6.71793 -1.4056,2.99724 -4.01009,4.98161 -2.62516,2.00504 -5.74641,2.85254 -3.12126,0.86816 -6.44922,0.86816 -3.05924,0 -7.56542,-0.78548 l -0.0413,-1.73633 q -0.0413,-1.13688 -0.12402,-2.50114 l -0.1447,-2.35644 q 2.41846,0.57878 3.92741,0.78548 1.48828,0.20671 2.76985,0.20671 2.79053,0 5.02295,-1.11621 2.23242,-1.11621 3.51399,-3.24528 1.28158,-2.12907 1.28158,-4.71289 0,-2.35644 -1.07487,-4.05143 -1.07487,-1.67431 -2.89388,-2.60449 -1.83968,-0.9095 -4.52685,-0.9095 -1.46761,0 -3.18327,0.22737 -1.73632,0.24805 -4.34081,0.93018 z m -5.64306,8.20621 q -0.39274,2.04639 -0.49609,2.8112 -0.10335,0.78548 -0.33073,2.43912 -5.95312,1.30225 -10.231925,1.30225 -2.439126,0 -4.46484,-0.55811 -2.025715,-0.53743 -3.162596,-1.75699 -1.13688,-1.21957 -1.13688,-3.49333 0,-1.15755 0.310058,-5.20898 0.310058,-4.05143 0.475423,-10.62467 2.025715,0.0413 4.030759,0.0413 1.943032,0 4.134111,-0.0413 -0.289388,2.27377 -0.640787,9.38444 0.785481,-0.37207 1.240233,-0.53744 0.434082,-0.16536 1.550292,-0.49609 1.11621,-0.33073 1.756997,-0.55811 0.620117,-0.22737 1.09554,-0.57877 0.454755,-0.3514 0.661455,-0.72347 0.18604,-0.37207 0.18604,-0.82682 0,-0.7028 -0.55811,-1.1989 -0.558102,-0.49609 -1.777665,-0.49609 -0.434082,0 -0.930175,0.062 -0.496094,0.0827 -1.364257,0.37207 0.599446,-1.59163 1.426268,-4.65087 1.777668,-0.28939 3.369299,-0.28939 2.56315,0 4.27881,0.7028 1.69498,0.72347 2.62516,2.3151 0.9095,1.59163 0.9095,3.18327 0,0.97151 -0.33073,1.90169 -0.3514,0.93017 -1.07487,1.81901 -0.72346,0.88883 -1.69498,1.50895 -0.97152,0.64079 -2.64583,1.19889 -1.69499,0.55811 -4.278807,1.0542 -1.074869,0.2067 -1.963703,0.43408 -0.909505,0.24805 -1.281575,0.41341 -0.39274,0.18604 -0.620117,0.41341 -0.248046,0.24805 -0.351399,0.4961 -0.103353,0.26871 -0.103353,0.5581 0,0.78548 0.661458,1.19889 0.661458,0.43409 1.943032,0.43409 3.555334,0 8.784984,-2.00505 z m -23.667784,-15.08951 -0.640788,9.17773 -0.206706,5.27099 q -0.02067,1.42627 -0.02067,2.91455 0,1.50895 0.04134,3.74137 -2.501137,-0.0413 -3.968747,-0.0413 -1.715656,0 -3.948076,0.0413 l 0.08268,-2.33577 q -0.806152,0.9095 -1.322916,1.34359 -0.516764,0.45475 -1.178222,0.80615 -0.661457,0.37207 -1.384927,0.53743 -0.723469,0.18604 -1.508951,0.18604 -0.74414,0 -1.653644,-0.20671 -0.02067,-2.25309 -0.103353,-3.7207 l -0.144694,-3.18326 q 1.136881,0.33072 2.129068,0.33072 1.240233,0 2.149738,-0.37207 0.888833,-0.35139 1.591632,-1.09553 0.682129,-0.72347 1.09554,-1.81901 0.413411,-1.09554 0.578776,-3.47266 0.165364,-2.37711 0.165364,-5.43635 0,-1.07487 -0.08268,-2.66651 2.005044,0.0413 4.030759,0.0413 2.005044,0 4.299477,-0.0413 z m -38.674613,6.24251 q 0.268717,-1.24023 1.033528,-5.99446 2.397784,-0.47542 4.030759,-0.62012 1.632974,-0.16536 3.307289,-0.16536 2.459796,0 4.526852,0.3514 2.067056,0.33073 3.576006,1.19889 1.48828,0.86816 2.501137,2.14974 1.012858,1.30224 1.550292,3.07991 0.516764,1.77767 0.516764,3.65869 0,2.64583 -1.054198,5.16764 -1.054199,2.54248 -2.707843,3.96875 -1.674315,1.42627 -3.844724,2.02571 -2.170408,0.59945 -4.44417,0.59945 -2.356443,0 -4.485511,-0.55811 -2.149737,-0.53743 -3.638018,-1.90169 -1.48828,-1.36425 -2.108396,-3.07991 -0.640788,-1.71566 -0.640788,-3.70003 0,-1.17822 0.268717,-2.62516 l 14.490061,-0.0207 q 0.02067,-0.33073 0.02067,-0.59945 0,-2.23242 -1.591633,-3.28662 -1.591633,-1.0542 -3.886065,-1.0542 -1.364257,0 -3.100584,0.31006 -1.756997,0.33073 -4.320146,1.09554 z m 12.712393,6.69726 h -6.821284 q -0.02067,0.3514 -0.02067,0.59945 0,1.07487 0.392741,1.83968 0.37207,0.76481 1.095539,1.11621 0.702799,0.3514 1.591633,0.3514 0.620117,0 1.198893,-0.20671 0.578775,-0.18603 1.054198,-0.57877 0.454752,-0.37207 0.764811,-0.86817 0.310058,-0.49609 0.454752,-0.97151 0.144694,-0.45475 0.289388,-1.28158 z M 37.844101,270.28476 q -0.39274,3.96875 -0.950845,15.17219 h 2.521808 q -0.06201,0.64079 -0.165365,2.72852 -0.124023,2.08772 -0.144694,3.0179 h -2.935219 q 0.02067,0.82682 0.02067,1.42627 0,1.90169 -0.186035,2.97656 -0.206706,1.07487 -0.72347,1.81901 -0.537434,0.76481 -1.48828,1.34358 -0.971516,0.59945 -2.170409,0.80615 -1.219563,0.20671 -2.521808,0.20671 -1.198892,0 -2.583819,-0.16536 -1.405598,-0.1447 -3.348631,-0.66146 -0.06201,-3.28662 -0.268717,-5.45703 2.046385,0.74414 3.679359,0.74414 1.11621,0 1.756998,-0.51676 0.620116,-0.51677 0.620116,-1.9017 l -0.02067,-0.62011 h -4.754228 q 0.165364,-2.37712 0.330729,-5.74642 h 4.299476 l 0.682128,-15.17219 q 2.459796,0.0413 4.216794,0.0413 1.777668,0 4.134112,-0.0413 z m -38.9846663,0 q 2.356444,0.0413 3.927406,0.0413 1.943032,0 3.906735,-0.0413 l 0.02067,2.83187 q 0.74414,-0.93017 1.260904,-1.4056 0.516764,-0.45475 1.136881,-0.80615 0.599446,-0.3514 1.3642563,-0.62012 0.74414,-0.24804 1.736327,-0.39274 0.971516,-0.14469 1.984374,-0.14469 1.632974,0 3.100583,0.39274 1.446939,0.37207 2.563149,1.28157 1.09554,0.90951 1.508951,2.06706 0.392741,1.15755 0.392741,2.68717 0,0.37207 -0.06201,1.15755 l -0.330729,4.69222 q -0.144694,2.58382 -0.268717,5.72575 -0.08268,1.92236 -0.08268,3.63801 -2.563149,-0.0413 -4.361488,-0.0413 -1.819009,0 -4.010088,0.0413 l 0.640787,-7.87548 q 0.144694,-1.79834 0.165365,-2.4598 0,-0.64078 0,-0.86816 0,-2.17041 -0.868164,-2.93522 -0.888834,-0.76481 -2.108397,-0.76481 -0.4960933,0 -0.9921863,0.1447 -0.496094,0.14469 -0.950846,0.41341 -0.392741,0.24804 -0.72347,0.62011 -0.351399,0.39274 -0.620116,0.95085 -0.330729,0.68213 -0.496094,1.46761 -0.227376,1.09554 -0.351399,2.76985 -0.08268,1.21957 -0.227376,4.2168 l -0.165365,4.32014 q -2.666502,-0.0413 -4.382158,-0.0413 -1.92236199,0 -3.865394,0.0413 0.475423,-5.25032 0.74414,-9.98388 0.268717,-4.73355 0.413411,-11.12076 z m -4.630208,0.0207 -0.37207,4.44417 -0.806152,15.44091 -0.227376,8.30956 q -2.8732067,-0.0413 -4.3201457,-0.0413 -1.881021,0 -4.154782,0.0413 l 0.475423,-6.34586 0.76481,-15.62694 0.165365,-6.24251 q 2.211749,0.0413 3.989417,0.0413 z m -13.1051327,0 -0.37207,4.44417 -0.806152,15.44091 -0.227376,8.30956 q -2.873207,-0.0413 -4.320146,-0.0413 -1.881021,0 -4.154785,0.0413 l 0.475426,-6.34586 0.76481,-15.62694 0.165365,-6.24251 q 2.211749,0.0413 3.989417,0.0413 z m -11.430819,-9.46711 q 0.64079,4.94026 0.86816,6.13915 -1.30224,-0.62011 -2.29443,-0.84749 -1.01285,-0.22737 -1.73632,-0.22737 -0.76481,0 -1.42627,0.2067 -0.68213,0.20671 -1.07487,0.51677 -0.39274,0.28938 -0.84749,0.9095 -0.47543,0.62012 -0.7028,1.07487 -0.22738,0.43408 -0.45476,1.2609 l 3.88607,11.76155 3.32796,9.7565 q -3.07991,-0.0413 -4.32015,-0.0413 -1.44694,0 -3.94807,0.0413 -0.39274,-1.59163 -1.44694,-5.49837 -1.07487,-3.90673 -1.55029,-6.11848 -0.26872,-1.21956 -0.51677,-3.10058 l -0.43408,1.65364 q -0.20671,0.66146 -0.47542,1.50895 -0.26872,0.84749 -0.68213,2.02572 l -1.34359,3.76204 -2.23242,5.76708 q -2.58382,-0.0413 -3.90673,-0.0413 -1.15755,0 -4.13411,0.0413 l 3.98941,-9.01236 7.21403,-16.72248 q 0.7028,-1.4056 1.34358,-2.23242 0.59945,-0.74414 1.30225,-1.30225 0.66146,-0.51676 1.42627,-0.86816 1.03352,-0.47542 2.27376,-0.74414 1.36426,-0.28939 2.76985,-0.28939 0.64079,0 1.69499,0.10336 1.0542,0.0827 1.71565,0.18603 0.64079,0.0827 1.71566,0.33073 z"
       inkscape:path-effect="#path-effect39"
       class="UnoptimicedTransforms" /><g
       id="g24"
       style="fill:#535353;fill-opacity:1;stroke:#404040;stroke-width:1.3;stroke-dasharray:none;stroke-opacity:1"><path
         id="path2"
         clip-path="none"
         style="fill:#535353;fill-opacity:1;stroke:#404040;stroke-width:1.3;stroke-dasharray:none;stroke-opacity:1"
         d="M 230.00461,84.257723 A 115.66576,115.66576 0 0 0 214.86592,53.941974 c -0.31584,-0.0048 -0.78893,0.100948 -1.42416,0.596948 -1.20041,0.937295 -23.30266,17.969739 -23.30266,17.969739 0,0 -13.92126,9.943039 -10.18777,21.506184 2.39358,7.413285 10.13947,13.120335 10.13947,13.120335 l 36.08115,25.61936 c 1.56118,1.05254 1.80278,1.13574 3.28203,1.15267 0.69755,0.008 4.27341,0.0682 4.27341,0.0682 0.36105,-0.0423 1.19732,-0.3516 1.2388,-1.68918 0.006,-0.2051 0.0767,-0.727 0.13128,-1.16959 a 115.66576,115.66576 0 0 0 -5.09286,-46.858957 z" /><path
         id="path10"
         clip-path="none"
         style="fill:#535353;fill-opacity:1;stroke:#404040;stroke-width:1.3;stroke-dasharray:none;stroke-opacity:1"
         d="m 187.98619,213.57561 a 115.66576,115.66576 0 0 0 24.15388,-23.76583 c -0.093,-0.30187 -0.3398,-0.71912 -1.00782,-1.16999 -1.26237,-0.85202 -24.29116,-16.60919 -24.29116,-16.60919 0,0 -13.7583,-10.16733 -23.60179,-3.04337 -6.3108,4.56726 -9.34491,13.69762 -9.34491,13.69762 l -13.21578,42.23203 c -0.51858,1.81002 -0.52305,2.06551 -0.082,3.47759 0.20796,0.66588 1.25566,4.08534 1.25566,4.08534 0.15184,0.33029 0.70439,1.03007 1.98932,0.65618 0.19702,-0.0573 0.71513,-0.15167 1.15291,-0.23657 a 115.66576,115.66576 0 0 0 42.99174,-19.32381 z" /><path
         id="path13"
         clip-path="none"
         style="fill:#535353;fill-opacity:1;stroke:#404040;stroke-width:1.3;stroke-dasharray:none;stroke-opacity:1"
         d="M 52.013164,213.57514 A 115.66576,115.66576 0 0 0 82.07977,229.2028 c 0.258347,-0.18176 0.578921,-0.54539 0.801294,-1.32004 0.420225,-1.46387 8.289902,-28.23479 8.289902,-28.23479 0,0 5.418158,-16.22679 -4.398939,-23.38709 -6.293868,-4.59056 -15.914947,-4.65474 -15.914947,-4.65474 l -44.248943,0.48147 c -1.881685,0.0661 -2.126054,0.14082 -3.332745,0.9966 -0.569024,0.40355 -3.497365,2.45664 -3.497365,2.45664 -0.267207,0.24648 -0.761989,0.98822 -0.0093,2.09473 0.115409,0.16965 0.365234,0.63325 0.581255,1.02337 a 115.66576,115.66576 0 0 0 31.663214,34.91619 z" /><path
         id="path16"
         clip-path="none"
         style="fill:#535353;fill-opacity:1;stroke:#404040;stroke-width:1.3;stroke-dasharray:none;stroke-opacity:1"
         d="m 9.9956406,84.25696 a 115.66576,115.66576 0 0 0 -5.5716933,33.42425 c 0.2526942,0.18954 0.6975925,0.38206 1.5030474,0.35416 1.5220822,-0.0527 29.4145983,-0.84086 29.4145983,-0.84086 0,0 17.106901,0.13862 20.883095,-11.41065 C 58.64566,98.379478 55.733621,89.209456 55.733621,89.209456 L 41.602046,47.27499 c -0.644358,-1.769156 -0.790917,-1.978481 -1.977699,-2.861663 -0.559635,-0.41647 -3.41715,-2.567047 -3.41715,-2.567047 -0.316984,-0.177964 -1.175321,-0.419317 -1.995087,0.638431 -0.12569,0.162188 -0.4894,0.543046 -0.793671,0.869047 A 115.66576,115.66576 0 0 0 9.9956406,84.25696 Z" /><path
         id="path19"
         clip-path="none"
         style="fill:#535353;fill-opacity:1;stroke:#404040;stroke-width:1.3;stroke-dasharray:none;stroke-opacity:1"
         d="m 120.00041,4.3344113 a 115.66576,115.66576 0 0 0 -33.5101,5.0296671 c -0.102173,0.2988964 -0.147785,0.7815106 0.127641,1.5389246 0.520473,1.4313 9.889319,27.715104 9.889319,27.715104 0,0 5.15449,16.312466 17.3054,16.33492 7.79011,0.0144 15.61145,-5.588806 15.61145,-5.588806 l 35.51515,-26.398389 c 1.48345,-1.15952 1.63724,-1.363591 2.11046,-2.765206 0.22315,-0.660941 1.38545,-4.043164 1.38545,-4.043164 0.0713,-0.356463 0.0356,-1.247373 -1.2237,-1.700154 -0.19309,-0.06942 -0.6677,-0.297637 -1.07177,-0.486276 a 115.66576,115.66576 0 0 0 -46.1393,-9.6366207 z" /></g><g
       id="g25"
       style="fill:#3c3c3c;fill-opacity:1;stroke:none"><path
         id="path3"
         clip-path="none"
         style="fill:#3c3c3c;fill-opacity:1;stroke:none;stroke-width:0.864;stroke-dasharray:none;stroke-opacity:1"
         d="M 230.00461,84.257723 A 115.66576,115.66576 0 0 0 214.86592,53.941974 c -0.31584,-0.0048 -0.78897,0.100984 -1.42416,0.596948 -0.17839,0.139292 -2.50243,1.929025 -3.46288,2.670468 a 109.79185,109.79185 0 0 1 14.43917,28.863517 109.79185,109.79185 0 0 1 4.49029,47.810563 c 0.17371,0.008 0.32558,0.0212 0.54564,0.0237 0.69755,0.008 4.27341,0.0682 4.27341,0.0682 0.36105,-0.0423 1.19732,-0.3516 1.2388,-1.68918 0.006,-0.2051 0.0767,-0.727 0.13128,-1.16959 a 115.66576,115.66576 0 0 0 -5.09286,-46.858957 z" /><path
         id="path11"
         clip-path="none"
         style="fill:#3c3c3c;fill-opacity:1;stroke:none;stroke-width:0.864;stroke-dasharray:none;stroke-opacity:1"
         d="m 187.98619,213.57561 a 115.66576,115.66576 0 0 0 24.15388,-23.76583 c -0.093,-0.30188 -0.33985,-0.71915 -1.00782,-1.16999 -0.1876,-0.12661 -2.60791,-1.78385 -3.60986,-2.46817 a 109.79185,109.79185 0 0 1 -22.98889,22.65178 109.79185,109.79185 0 0 1 -44.08296,19.0448 c 0.0457,0.16781 0.0804,0.3162 0.14602,0.52627 0.20796,0.66588 1.25566,4.08534 1.25566,4.08534 0.15184,0.33029 0.70439,1.03007 1.98932,0.65618 0.19702,-0.0573 0.71513,-0.15167 1.15291,-0.23657 a 115.66576,115.66576 0 0 0 42.99174,-19.32381 z" /><path
         id="path14"
         clip-path="none"
         style="fill:#3c3c3c;fill-opacity:1;stroke:none;stroke-width:0.864;stroke-dasharray:none;stroke-opacity:1"
         d="M 52.013164,213.57514 A 115.66576,115.66576 0 0 0 82.07977,229.2028 c 0.258366,-0.18174 0.578936,-0.54544 0.801294,-1.32004 0.06244,-0.21754 0.890655,-3.03151 1.231864,-4.19588 A 109.79185,109.79185 0 0 1 55.46585,208.82293 109.79185,109.79185 0 0 1 23.730785,172.7827 c -0.145489,0.0953 -0.275879,0.1742 -0.455393,0.30151 -0.569024,0.40355 -3.497365,2.45664 -3.497365,2.45664 -0.267207,0.24648 -0.761989,0.98822 -0.0093,2.09473 0.115409,0.16965 0.365235,0.63325 0.581255,1.02337 a 115.66576,115.66576 0 0 0 31.663214,34.91619 z" /><path
         id="path17"
         clip-path="none"
         style="fill:#3c3c3c;fill-opacity:1;stroke:none;stroke-width:0.864;stroke-dasharray:none;stroke-opacity:1"
         d="m 9.9956406,84.25696 a 115.66576,115.66576 0 0 0 -5.5716933,33.42425 c 0.2526806,0.18956 0.6976495,0.38205 1.5030474,0.35416 0.2261922,-0.008 3.1583602,-0.0897 4.3711873,-0.12502 A 109.79185,109.79185 0 0 1 15.582204,86.072144 109.79185,109.79185 0 0 1 40.05182,44.753262 c -0.135573,-0.108926 -0.250922,-0.208547 -0.427473,-0.339935 -0.559635,-0.41647 -3.41715,-2.567047 -3.41715,-2.567047 -0.316984,-0.177964 -1.175321,-0.419317 -1.995087,0.638431 -0.12569,0.162188 -0.489399,0.543046 -0.793671,0.869047 A 115.66576,115.66576 0 0 0 9.9956406,84.25696 Z" /><path
         id="path20"
         clip-path="none"
         style="fill:#3c3c3c;fill-opacity:1;stroke:none;stroke-width:0.864;stroke-dasharray:none;stroke-opacity:1"
         d="m 120.00041,4.3344113 a 115.66576,115.66576 0 0 0 -33.5101,5.0296671 c -0.102201,0.2988912 -0.147765,0.7815636 0.127641,1.5389246 0.07735,0.2127 1.061319,2.976053 1.469678,4.118611 a 109.79185,109.79185 0 0 1 31.912781,-4.813143 109.79185,109.79185 0 0 1 46.85812,10.503752 c 0.0617,-0.162598 0.1208,-0.303086 0.1912,-0.511597 0.22315,-0.660941 1.38545,-4.043164 1.38545,-4.043164 0.0713,-0.356463 0.0356,-1.247373 -1.2237,-1.700154 -0.19309,-0.06942 -0.6677,-0.297636 -1.07177,-0.486276 a 115.66576,115.66576 0 0 0 -46.1393,-9.6366207 z" /></g><g
       id="g23"><path
         style="fill:#000000;fill-opacity:1;stroke:none;stroke-width:0.264;stroke-dasharray:none;stroke-opacity:1"
         d="m 197.67629,98.653701 15.11774,14.105139 c 2.97071,2.19522 7.31473,-1.90972 6.29914,-5.87751 -1.02557,-4.8589 -5.02438,-23.200008 -12.68761,-36.100961 -2.51216,-3.856775 -6.17994,-2.804384 -6.90812,-0.628515 -1.90769,4.4696 -3.7608,8.659867 -5.99661,14.808958 -1.43121,7.629776 1.40068,10.630332 4.17546,13.692889 z"
         id="path4"
         sodipodi:nodetypes="ccccccc" /><path
         style="fill:#000000;fill-opacity:1;stroke:none;stroke-width:0.264;stroke-dasharray:none;stroke-opacity:1"
         d="m 164.3048,187.27816 -8.74314,18.73655 c -1.16978,3.50367 4.07662,6.36659 7.53638,4.17459 4.30417,-2.47686 20.5119,-11.94767 30.41337,-23.22245 2.89171,-3.58101 0.75742,-6.74407 -1.53698,-6.76423 -4.84035,-0.43314 -9.39817,-0.90069 -15.93721,-1.1269 -7.69861,0.99657 -9.67721,4.61708 -11.73242,8.20244 z"
         id="path12"
         sodipodi:nodetypes="ccccccc" /><path
         style="fill:#000000;fill-opacity:1;stroke:none;stroke-width:0.264;stroke-dasharray:none;stroke-opacity:1"
         d="m 69.705578,182.92644 -20.5213,-2.52531 c -3.693672,-0.0298 -4.795237,5.84448 -1.6414,8.45755 3.685695,3.32812 17.701438,15.81594 31.484107,21.7487 4.299333,1.64359 6.648051,-1.36368 5.958218,-3.55201 -1.083814,-4.7373 -2.047591,-9.21653 -3.853128,-15.50542 -3.326797,-7.01386 -7.381526,-7.77682 -11.426497,-8.62351 z"
         id="path15"
         sodipodi:nodetypes="ccccccc" /><path
         style="fill:#000000;fill-opacity:1;stroke:none;stroke-width:0.264;stroke-dasharray:none;stroke-opacity:1"
         d="M 44.611542,91.612476 40.671824,71.315197 c -1.113033,-3.52211 -7.04024,-2.754499 -8.550824,1.052461 -2.026288,4.53375 -9.571808,21.722462 -10.955118,36.663882 -0.234578,4.59681 3.351299,5.90127 5.219354,4.56897 4.170517,-2.49467 8.132693,-4.79544 13.555847,-8.45598 5.642542,-5.331374 5.115178,-9.423417 4.670459,-13.532054 z"
         id="path18"
         sodipodi:nodetypes="ccccccc" /><path
         style="fill:#000000;fill-opacity:1;stroke:none;stroke-width:0.264;stroke-dasharray:none;stroke-opacity:1"
         d="m 123.7018,39.52907 18.08642,-10.019099 c 3.00578,-2.146949 0.44413,-7.546853 -3.6433,-7.807089 -4.93801,-0.526108 -23.61714,-2.39072 -38.25474,0.910827 -4.44431,1.197394 -4.576834,5.010868 -2.73248,6.37579 3.66134,3.195501 7.07387,6.252779 12.2311,10.279335 6.81408,3.718891 10.54288,1.952827 14.313,0.260236 z"
         id="path21"
         sodipodi:nodetypes="ccccccc" /></g><circle
       style="fill:#c0c0c0;fill-opacity:1;stroke:#3c3c3c;stroke-width:1;stroke-dasharray:none;stroke-opacity:1"
       id="circle21"
       cx="119.99998"
       cy="120.00001"
       r="58.883595" /><circle
       style="fill:none;fill-opacity:1;stroke:#ffffff;stroke-width:5.607;stroke-dasharray:none;stroke-opacity:1"
       id="circle22"
       cx="119.99998"
       cy="120.00001"
       r="122.26991" /><path
       style="font-size:42.3333px;font-family:'Eras Bold ITC';-inkscape-font-specification:'Eras Bold ITC';text-align:end;text-anchor:end;stroke:#c1c1c1;stroke-width:2"
       d="m 61.246006,-39.008724 c -1.852042,-6.447451 -4.140083,-13.517253 -6.911263,-21.051708 -2.968082,1.236823 -5.901745,2.550592 -8.797028,3.939295 -0.279915,-0.712748 -0.559399,-1.42568 -0.838451,-2.138796 -0.447426,-1.143014 -0.956276,-2.388509 -1.526056,-3.733334 4.022681,-1.778014 8.850149,-3.764717 14.37727,-5.725169 1.812171,-0.650083 3.63445,-1.272647 5.466044,-1.867349 1.781732,-0.571472 3.57207,-1.11658 5.370282,-1.635016 0.972121,-0.28744 1.946659,-0.567085 2.923499,-0.838883 0.129776,0.657285 0.260036,1.314459 0.39078,1.971521 0.222231,1.051859 0.412503,1.924477 0.567771,2.608993 0.170174,0.681553 0.302865,1.196307 0.397077,1.541484 -3.135596,0.71315 -5.734848,1.436787 -7.718738,2.072138 -0.503231,0.161163 -1.005762,0.324496 -1.507573,0.489993 0.54867,2.385589 1.09923,4.581573 1.641481,6.577779 0.784187,2.861014 1.585168,5.632588 2.395703,8.310693 0.804582,2.659842 1.489106,4.820615 2.036,6.447536 -2.005711,0.646311 -3.467242,1.164587 -3.999454,1.35905 -0.435915,0.159277 -2.068229,0.769104 -4.267344,1.671773 z m 16.744386,-21.229438 c -0.06471,-1.397323 -0.117031,-2.335294 -0.168711,-2.854904 -0.0532,-0.515401 -0.135764,-1.354139 -0.237938,-2.453271 3.971561,-1.867834 7.561728,-3.038933 10.624091,-3.592278 1.748902,-0.316012 3.386996,-0.396366 4.897962,-0.25091 1.509174,0.131866 2.726032,0.556048 3.643492,1.25347 0.919266,0.698797 1.463511,1.803053 1.652858,3.306743 0.09787,0.777233 0.202308,2.488865 0.335028,5.205585 0.132443,2.711221 0.430204,6.229013 0.894176,10.592203 -1.289266,0.141161 -2.569066,0.311364 -3.838239,0.509848 -1.229331,0.192253 -2.534817,0.425359 -3.910816,0.704328 -0.08918,-1.528634 -0.441672,-4.633532 -1.037838,-9.345285 -0.482324,0.338176 -0.861199,0.589294 -1.1445,0.7544 -0.272099,0.164107 -0.75032,0.418881 -1.450827,0.781721 -0.695171,0.360078 -1.241064,0.662654 -1.630801,0.897328 -0.377839,0.232893 -0.698204,0.497689 -0.960966,0.793348 -0.249204,0.292752 -0.414285,0.575448 -0.496325,0.847098 -0.06858,0.268798 -0.07003,0.551197 -0.0052,0.847309 0.100184,0.457658 0.366511,0.808067 0.795715,1.053672 0.429625,0.245847 1.034438,0.285136 1.81966,0.124618 0.279532,-0.05714 0.574966,-0.137865 0.88684,-0.241927 0.309755,-0.11779 0.724751,-0.32546 1.25122,-0.621962 -0.1898,1.112974 -0.356016,2.729175 -0.477617,4.829517 -1.078654,0.41142 -2.11099,0.727687 -3.104867,0.946697 -1.600521,0.352691 -2.981361,0.442682 -4.164646,0.252497 -1.172698,-0.20659 -2.184811,-0.740227 -3.041785,-1.611295 -0.843947,-0.874511 -1.411895,-1.819448 -1.688245,-2.843917 -0.168676,-0.625309 -0.227674,-1.26606 -0.173241,-1.922634 0.06784,-0.660022 0.262716,-1.339654 0.588829,-2.037056 0.326137,-0.697453 0.761937,-1.328698 1.307785,-1.891302 0.541845,-0.575271 1.331576,-1.181799 2.371886,-1.806081 1.052404,-0.626453 2.425394,-1.297162 4.113297,-1.98199 0.703438,-0.285637 1.343965,-0.560205 1.922822,-0.826721 0.591063,-0.283116 1.003041,-0.499205 1.2391,-0.655545 0.246788,-0.171896 0.43501,-0.346261 0.564391,-0.523795 0.141129,-0.193655 0.232996,-0.378082 0.275149,-0.55361 0.03971,-0.189067 0.04277,-0.37852 0.0088,-0.568367 -0.09211,-0.51521 -0.391799,-0.867891 -0.902605,-1.054709 -0.513013,-0.200269 -1.218646,-0.216777 -2.111974,-0.0425 -2.473055,0.482468 -5.410648,1.790879 -8.645986,3.979676 z m 25.956328,10.702701 c 0.001,-2.070666 -0.0113,-3.749777 -0.0473,-5.082552 -0.084,-2.778609 -0.19527,-5.989224 -0.3284,-9.661777 -0.10136,-2.426665 -0.22384,-4.750605 -0.37281,-6.978909 -0.13392,-2.229084 -0.29661,-4.391357 -0.49265,-6.490099 1.93726,-0.153932 3.63736,-0.26594 4.84348,-0.346432 1.68141,-0.112212 3.28299,-0.209431 4.77959,-0.297326 -0.0978,1.672098 -0.19105,3.344209 -0.27971,5.016318 -0.0403,0.817802 -0.091,2.517581 -0.14055,5.031937 0.46112,-0.59931 0.84656,-1.043008 1.14828,-1.329664 0.30172,-0.300915 0.63588,-0.574643 1.00247,-0.82065 0.38109,-0.260248 0.76524,-0.477932 1.15162,-0.653013 0.40133,-0.175433 0.85715,-0.330228 1.36711,-0.462992 0.525,-0.13302 1.09708,-0.236936 1.71534,-0.310302 0.55409,-0.06428 1.12058,-0.09962 1.6987,-0.105665 0,0 0,0 0,0 0.0826,-7.24e-4 0.16552,-8.5e-4 0.24863,-3.76e-4 1.28213,0.0073 2.51735,0.158995 3.69792,0.451706 1.1958,0.293152 2.19918,0.792671 3.00498,1.48872 0.80658,0.682473 1.33171,1.440705 1.58347,2.26701 0.25264,0.813082 0.34963,1.700551 0.2972,2.663027 -0.0202,0.371507 -0.0616,0.86495 -0.12391,1.48236 -0.0473,0.604909 -0.13183,1.370829 -0.25276,2.302718 -0.27975,2.308237 -0.55322,4.617088 -0.82037,6.926535 -0.0983,0.862882 -0.16824,1.584486 -0.21054,2.160693 -0.0283,0.563788 -0.0641,1.278836 -0.10754,2.145144 -1.37546,-0.09519 -2.69313,-0.155476 -3.95068,-0.184978 -1.1324,-0.02657 -2.27757,-0.03198 -3.43447,-0.01512 0,0 0,0 0,0 -0.28946,0.0032 -0.57972,0.0078 -0.87075,0.01377 0.21911,-1.831344 0.42001,-3.942887 0.60166,-6.324824 0.18234,-2.40463 0.28062,-4.174317 0.28416,-5.352907 0.004,-1.295897 -0.27881,-2.205579 -0.85944,-2.728789 -0.56498,-0.522168 -1.32365,-0.77971 -2.26808,-0.764533 -0.84252,0.01354 -1.58745,0.197253 -2.229,0.546958 -0.5706,0.306366 -1.0605,0.771629 -1.46766,1.39399 -0.35364,0.524011 -0.6297,1.272922 -0.82771,2.247106 -0.23162,1.184063 -0.3673,2.917564 -0.40755,5.210508 -0.021,1.269739 -0.005,3.254861 0.0503,5.95521 -1.33251,0.03843 -2.58139,0.104188 -3.74029,0.190404 -1.16673,0.0868 -2.59434,0.220228 -4.24262,0.416787 -2e-5,1e-6 -3e-5,2e-6 -4e-5,4e-6 z m 49.33929,-26.506261 c 2.44626,0.429603 4.73814,1.177776 6.85012,2.228769 2.11243,1.051217 3.84116,2.424812 5.17582,4.092467 1.33831,1.654778 2.1795,3.415042 2.54609,5.261774 0.367,1.848804 0.25195,3.836162 -0.31475,5.969488 -0.59466,2.238594 -1.56824,4.185012 -2.88372,5.851378 -1.29911,1.657414 -2.86989,2.950535 -4.70021,3.899707 -1.83169,0.949878 -3.84186,1.505651 -6.0493,1.689964 -2.20565,0.170901 -4.41498,0.06041 -6.66185,-0.326486 -2.22049,-0.382353 -4.30111,-1.004548 -6.27397,-1.880057 -1.9707,-0.889012 -3.65333,-2.076784 -5.06847,-3.589727 -1.39973,-1.524699 -2.37928,-3.139882 -2.90917,-4.868179 -0.52935,-1.726524 -0.73218,-3.613877 -0.57777,-5.658166 0.22715,-3.007405 1.15239,-5.587822 2.86408,-7.721165 1.72431,-2.141336 4.18937,-3.699748 7.39345,-4.595272 3.21636,-0.892792 6.78643,-1.025915 10.60965,-0.354495 z m -1.48213,6.054551 c -1.70638,-0.296823 -3.31982,-0.156455 -4.81385,0.413179 -1.49208,0.556056 -2.69631,1.48249 -3.61048,2.763477 -0.91235,1.267342 -1.45728,2.690899 -1.65774,4.261428 -0.18474,1.447354 -0.0331,2.813129 0.43491,4.097084 0.4822,1.28652 1.31228,2.358263 2.486,3.230244 1.17584,0.858421 2.46086,1.405987 3.8756,1.650515 1.50984,0.260968 2.95349,0.145389 4.35459,-0.352215 1.41714,-0.508365 2.60057,-1.359021 3.5503,-2.566532 0.96624,-1.217825 1.62084,-2.562817 1.94261,-4.044557 0.31297,-1.441253 0.28276,-2.837259 -0.10989,-4.188767 -0.3896,-1.364365 -1.15436,-2.516454 -2.30005,-3.44402 -1.14502,-0.927021 -2.53469,-1.538508 -4.152,-1.819836 z m 14.97199,26.0663 c 0.62863,-2.87672 1.06348,-5.193997 1.30849,-6.96001 1.32557,1.086248 2.51596,1.936812 3.5965,2.550137 1.09695,0.603623 2.07674,1.04591 2.95104,1.323351 1.15185,0.365516 2.11458,0.50067 2.89799,0.39732 0.80001,-0.111915 1.31283,-0.490859 1.5338,-1.144337 0.0751,-0.222108 0.11255,-0.442368 0.11205,-0.660878 0.004,-0.231521 -0.0458,-0.503075 -0.14987,-0.814322 -0.0997,-0.324251 -0.27395,-0.695394 -0.52414,-1.112296 -0.9097,-1.492472 -1.84287,-2.980024 -2.80003,-4.461764 -0.68395,-1.027837 -1.15098,-1.738612 -1.41804,-2.185798 -0.53436,-0.895511 -0.93033,-1.693775 -1.1825,-2.399826 -0.23794,-0.701492 -0.37225,-1.378625 -0.39996,-2.032285 -0.01,-0.662709 0.0807,-1.332591 0.27366,-2.008969 0.23084,-0.809034 0.60659,-1.555388 1.132,-2.236811 0.54364,-0.690432 1.22758,-1.282568 2.0545,-1.772365 0.82667,-0.489657 1.83613,-0.822441 3.027,-0.990445 1.19085,-0.168002 2.41065,-0.145706 3.65205,0.06825 1.24557,0.200825 2.49714,0.515831 3.74967,0.945228 2.4611,0.843719 5.03759,2.057652 7.68964,3.651091 -0.29635,0.904685 -0.55914,1.741486 -0.78821,2.509619 -0.22683,0.764312 -0.58251,2.091512 -1.08916,4.032946 -1.09383,-0.968343 -2.14686,-1.738665 -3.14719,-2.311731 -0.99553,-0.585976 -1.88606,-1.014624 -2.66287,-1.28882 -1.1023,-0.389088 -2.09027,-0.51642 -2.95479,-0.387014 -0.85089,0.134285 -1.36781,0.486728 -1.55493,1.049137 -0.0871,0.261745 -0.11558,0.535694 -0.0861,0.821782 0.0295,0.28625 0.14155,0.650572 0.33456,1.094149 0.1975,0.430671 0.47759,0.932774 0.83846,1.508911 0.37927,0.584528 0.93065,1.397883 1.72342,2.574226 0.36177,0.545696 0.72034,1.092139 1.07574,1.639281 0.31271,0.494891 0.63118,1.074235 0.95287,1.737303 0.3217,0.663071 0.57448,1.295359 0.76006,1.895601 0.18557,0.60019 0.29635,1.129341 0.33452,1.586235 0.0515,0.462139 0.0462,0.910279 -0.0148,1.344444 -0.0561,0.421346 -0.17113,0.856846 -0.34449,1.306976 -0.44576,1.157469 -1.15311,2.15481 -2.1102,3.00043 -0.95235,0.832879 -2.06029,1.40283 -3.32369,1.718645 -1.2587,0.302885 -2.53824,0.379097 -3.8474,0.230811 -1.2967,-0.143881 -2.61356,-0.436279 -3.9598,-0.875664 -2.08853,-0.681652 -4.59329,-1.806076 -7.63986,-3.342542 z"
       id="text35"
       aria-label="TahOS"
       transform="translate(-4.836053e-6,17.462528)"
       inkscape:transform-center-x="1.2735409"
       inkscape:transform-center-y="-161.23808"
       inkscape:original-d="m 58.267378,-37.954826 q 1.033528,-10.045891 1.240233,-22.117497 l -8.805657,0.227376 0.103353,-2.294432 q 0.08268,-1.839679 0.124023,-4.030758 5.870438,0.04134 13.683909,0.04134 l 5.105628,-0.02067 h 4.960934 l 2.687172,-0.02067 -0.124023,2.005044 q -0.08268,1.612303 -0.124024,2.666502 -0.02067,1.054198 -0.02067,1.591633 -4.4235,-0.206706 -7.296707,-0.206706 H 68.35461 q -0.310058,3.658689 -0.475423,6.759272 -0.227376,4.44417 -0.351399,8.640293 -0.124024,4.175453 -0.124024,6.759273 -3.389971,-0.04134 -4.382158,-0.04134 -0.888834,0 -4.754228,0.04134 z m 22.282861,-15.089507 q 0.392741,-2.046385 0.496094,-2.811196 0.103352,-0.785481 0.330729,-2.439126 5.95312,-1.302245 10.231925,-1.302245 2.439126,0 4.464841,0.558105 2.025715,0.537435 3.162595,1.756997 1.136877,1.219563 1.136877,3.493325 0,1.157551 -0.31005,5.20898 -0.310063,4.051429 -0.475427,10.624667 -2.025715,-0.04134 -4.030759,-0.04134 -1.943032,0 -4.134112,0.04134 0.289388,-2.273762 0.640788,-9.384433 -0.785481,0.37207 -1.240234,0.537434 -0.434081,0.165365 -1.550292,0.496093 -1.11621,0.330729 -1.756997,0.558106 -0.620117,0.227376 -1.095539,0.578775 -0.454753,0.3514 -0.661458,0.72347 -0.186035,0.37207 -0.186035,0.826822 0,0.702799 0.558105,1.198892 0.558105,0.496094 1.777668,0.496094 0.434081,0 0.930175,-0.06201 0.496093,-0.08268 1.364257,-0.37207 -0.599447,1.591633 -1.426269,4.650875 -1.777668,0.289388 -3.369301,0.289388 -2.563149,0 -4.278805,-0.702799 -1.694986,-0.723469 -2.625161,-2.315102 -0.909504,-1.591633 -0.909504,-3.183266 0,-0.971516 0.330728,-1.901691 0.3514,-0.930175 1.074869,-1.819009 0.72347,-0.888834 1.694986,-1.508951 0.971516,-0.640787 2.645832,-1.198892 1.694985,-0.558105 4.278805,-1.054199 1.074869,-0.206705 1.963703,-0.434082 0.909504,-0.248046 1.281574,-0.413411 0.392741,-0.186035 0.620117,-0.413411 0.248047,-0.248047 0.3514,-0.496093 0.103352,-0.268717 0.103352,-0.558105 0,-0.785481 -0.661457,-1.198893 -0.661458,-0.434081 -1.943033,-0.434081 -3.555336,0 -8.784987,2.005044 z m 23.564431,15.089507 q 0.33073,-3.079913 0.47543,-5.064287 0.28938,-4.154782 0.59944,-9.65315 0.18604,-3.638018 0.26872,-6.986649 0.10335,-3.34863 0.10335,-6.511225 2.62516,0.04134 4.27881,0.04134 2.23242,0 4.21679,-0.04134 l -0.43408,5.002275 q -0.10335,1.240233 -0.33073,5.022945 0.68213,-0.868163 1.11621,-1.281574 0.43408,-0.434082 0.95085,-0.785482 0.53743,-0.37207 1.07487,-0.620116 0.5581,-0.248047 1.2609,-0.434082 0.72347,-0.186035 1.57096,-0.289388 0.86817,-0.103353 1.77767,-0.103353 1.757,0 3.38997,0.392741 1.65365,0.392741 2.8112,1.384927 1.15755,0.971517 1.57096,2.191079 0.41341,1.198893 0.41341,2.645832 0,0.558105 -0.0413,1.48828 -0.0207,0.909504 -0.12402,2.315102 l -0.45476,6.965978 q -0.0827,1.302245 -0.10335,2.170409 0,0.847493 0,2.149738 -2.14974,-0.04134 -4.11344,-0.04134 -2.21175,0 -4.48551,0.04134 0.3514,-2.749184 0.62012,-6.325191 0.26871,-3.596677 0.26871,-5.353674 0,-1.943033 -0.82682,-2.728514 -0.80615,-0.785481 -2.14974,-0.785481 -1.19889,0 -2.12906,0.496093 -0.82683,0.434082 -1.44694,1.343587 -0.53744,0.76481 -0.88884,2.211749 -0.41341,1.756998 -0.64078,5.18831 -0.12403,1.901691 -0.24805,5.953121 -2.08773,-0.04134 -3.90674,-0.04134 -1.83968,0 -4.44417,0.04134 z m 46.26071,-28.752746 q 3.30729,0 6.36653,0.888834 3.05924,0.888834 5.35368,2.852537 2.29443,1.943033 3.43131,4.485511 1.13688,2.542479 1.13688,5.849768 0,3.472654 -1.26091,6.387202 -1.24023,2.893878 -3.59667,4.919593 -2.35645,2.025714 -5.62239,2.97656 -3.26595,0.930175 -6.80062,0.930175 -3.49332,0 -6.69726,-0.909504 -3.20393,-0.930175 -5.58105,-2.976561 -2.35644,-2.067055 -3.34863,-4.588863 -0.99219,-2.521808 -0.99219,-5.601721 0,-4.526853 2.08773,-7.937494 2.1084,-3.431313 6.22184,-5.353675 4.13411,-1.922362 9.30175,-1.922362 z m -0.37207,6.221838 q -2.37711,0 -4.29948,1.178222 -1.92236,1.157551 -2.95589,3.245277 -1.03352,2.067056 -1.03352,4.44417 0,2.191079 0.93017,4.010088 0.95085,1.819009 2.87321,2.852537 1.92236,1.012858 4.0721,1.012858 2.29443,0 4.19612,-1.136881 1.92236,-1.157551 2.91455,-3.224607 1.01286,-2.087726 1.01286,-4.361488 0,-2.211749 -0.93018,-4.072099 -0.93017,-1.881021 -2.72851,-2.914549 -1.79834,-1.033528 -4.05143,-1.033528 z m 19.71971,22.096826 q -0.26871,-4.402829 -0.62011,-7.04866 2.3151,1.033528 4.11344,1.446939 1.81901,0.39274 3.18326,0.39274 1.79834,0 2.85254,-0.516763 1.07487,-0.537435 1.07487,-1.570963 0,-0.351399 -0.10335,-0.661458 -0.10336,-0.330729 -0.39274,-0.723469 -0.28939,-0.413411 -0.82683,-0.888834 l -3.88606,-3.389972 q -1.36426,-1.157551 -1.90169,-1.674315 -1.09554,-1.054198 -1.71566,-1.963703 -0.59945,-0.909504 -0.88883,-1.839679 -0.26872,-0.950846 -0.26872,-2.005044 0,-1.260904 0.43408,-2.459797 0.45475,-1.219563 1.34359,-2.273761 0.88883,-1.054198 2.35644,-1.819009 1.46761,-0.764811 3.14193,-1.033528 1.67431,-0.289388 3.45198,-0.289388 3.49332,0 7.60676,0.806152 0.062,1.426269 0.1447,2.625161 0.0827,1.178222 0.39274,4.154782 -1.90169,-0.764811 -3.47266,-1.054199 -1.57096,-0.310058 -2.70784,-0.310058 -1.6123,0 -2.68717,0.599446 -1.0542,0.599446 -1.0542,1.48828 0,0.413412 0.16537,0.806152 0.16536,0.392741 0.62011,0.930175 0.45475,0.516764 1.19889,1.157551 0.74414,0.620117 2.33578,1.860351 l 1.48828,1.178221 q 0.66146,0.537435 1.42627,1.302245 0.76481,0.764811 1.32291,1.508951 0.55811,0.74414 0.84749,1.364257 0.31006,0.620117 0.45476,1.260904 0.14469,0.620117 0.14469,1.343586 0,1.86035 -0.88883,3.555336 -0.88884,1.674315 -2.52181,2.769855 -1.63298,1.074869 -3.59668,1.50895 -1.94303,0.434082 -4.11344,0.434082 -3.34863,0 -8.45426,-0.971516 z"
       inkscape:path-effect="#path-effect37"
       class="UnoptimicedTransforms" /><circle
       style="fill:none;fill-opacity:1;stroke:url(#linearGradient37);stroke-width:5.607;stroke-dasharray:none"
       id="circle35"
       cx="119.99998"
       cy="-120"
       r="122.26991"
       inkscape:export-filename="circle35.png"
       inkscape:export-xdpi="22.549999"
       inkscape:export-ydpi="22.549999"
       transform="rotate(90)" /></g></svg>
